<?xml version="1.0" encoding="UTF-8" standalone="no"?>
<!DOCTYPE svg PUBLIC "-//W3C//DTD SVG 1.1//EN" "http://www.w3.org/Graphics/SVG/1.1/DTD/svg11.dtd">
<svg version="1.1" xmlns="http://www.w3.org/2000/svg" xmlns:xlink="http://www.w3.org/1999/xlink" preserveAspectRatio="xMidYMid meet" viewBox="0.0012640466079005819 0 249.7487359533921 216.50635094610956" width="250" height="217"><defs><path d="M62.38 0L0 108.18L62.5 216.43L187.38 216.51L249.75 108.33L187.25 0.07L62.38 0Z" id="b4JUcnuRuL"/><path d="M160.93 127.63C160.93 160.95 143.25 188 121.47 188C99.68 188 82 160.95 82 127.63C82 94.3 99.68 67.25 121.47 67.25C143.25 67.25 160.93 94.3 160.93 127.63Z" id="boHx72H6p"/><path d="M111.6 57.86L131.6 57.86L131.6 74.67L111.6 74.67L111.6 57.86Z" id="bJKK3tFoE"/><path d="M98.62 34.67L144.31 34.67L144.31 59.85L98.62 59.85L98.62 34.67Z" id="a75a9jn06l"/><path d="M140.49 41.56L177.93 74.93C180.1 112.11 181.45 135.35 182 144.65C182.04 145.44 181.51 146.15 180.74 146.33C180.09 146.49 178.47 146.87 175.87 147.48L171.63 78.41L140.49 49.14L140.49 41.56Z" id="a1xHuGkRE1"/></defs><g><g><use xlink:href="#b4JUcnuRuL" opacity="1" fill="#0090db" fill-opacity="1"/><g><use xlink:href="#b4JUcnuRuL" opacity="1" fill-opacity="0" stroke="#000000" stroke-width="1" stroke-opacity="1"/></g></g><g><g><use xlink:href="#boHx72H6p" opacity="1" fill="#000000" fill-opacity="1"/></g><g><use xlink:href="#bJKK3tFoE" opacity="1" fill="#000000" fill-opacity="1"/></g><g><use xlink:href="#a75a9jn06l" opacity="1" fill="#000000" fill-opacity="1"/><g><use xlink:href="#a75a9jn06l" opacity="1" fill-opacity="0" stroke="#000000" stroke-width="1" stroke-opacity="1"/></g></g><g><use xlink:href="#a1xHuGkRE1" opacity="1" fill="#000000" fill-opacity="1"/></g></g></g></svg>