<?xml version="1.0" encoding="UTF-8" standalone="no"?>
<!DOCTYPE svg PUBLIC "-//W3C//DTD SVG 1.1//EN" "http://www.w3.org/Graphics/SVG/1.1/DTD/svg11.dtd">
<svg version="1.1" xmlns="http://www.w3.org/2000/svg" xmlns:xlink="http://www.w3.org/1999/xlink" preserveAspectRatio="xMidYMid meet" viewBox="-1.0043679766960167 3.1450673649466125 254 220.2162162162163" width="250" height="216.22"><defs><path d="M0 112.25L62.5 220.36L187.5 220.36L250 112.25L187.5 4.15L62.5 4.15L0 112.25Z" id="d26LNvAtdc"></path><path d="M66.27 113.28C66.27 145.44 92.43 171.6 124.59 171.6C156.74 171.6 182.91 145.44 182.91 113.28C182.91 81.12 156.74 54.96 124.59 54.96C92.43 54.96 66.27 81.12 66.27 113.28ZM77.82 113.28C77.82 87.49 98.8 66.51 124.59 66.51C150.38 66.51 171.36 87.49 171.36 113.28C171.36 139.07 150.38 160.05 124.59 160.05C98.8 160.05 77.82 139.07 77.82 113.28Z" id="b2XYCEyK8r"></path><path d="M118.81 29.56C118.81 35.29 118.81 81.18 118.81 86.91C118.81 90.1 121.4 92.69 124.59 92.69C127.78 92.69 130.36 90.1 130.36 86.91C130.36 81.18 130.36 35.29 130.36 29.56C130.36 26.37 127.78 23.78 124.59 23.78C121.4 23.78 118.81 26.37 118.81 29.56Z" id="chpuJGAL3"></path><path d="M118.81 139.65C118.81 145.39 118.81 191.27 118.81 197.01C118.81 200.2 121.4 202.78 124.59 202.78C127.78 202.78 130.36 200.2 130.36 197.01C130.36 191.27 130.36 145.39 130.36 139.65C130.36 136.46 127.78 133.88 124.59 133.88C121.4 133.88 118.81 136.46 118.81 139.65Z" id="dw4mpccPW"></path><path d="M150.96 107.51C147.77 107.51 145.18 110.09 145.18 113.28C145.18 116.47 147.77 119.06 150.96 119.06C156.69 119.06 202.58 119.06 208.31 119.06C211.5 119.06 214.09 116.47 214.09 113.28C214.09 110.09 211.5 107.51 208.31 107.51C196.84 107.51 156.69 107.51 150.96 107.51Z" id="aEu2l512l"></path><path d="M40.86 107.51C37.67 107.51 35.09 110.09 35.09 113.28C35.09 116.47 37.67 119.06 40.86 119.06C46.6 119.06 92.48 119.06 98.22 119.06C101.41 119.06 103.99 116.47 103.99 113.28C103.99 110.09 101.41 107.51 98.22 107.51C86.75 107.51 46.6 107.51 40.86 107.51Z" id="b1v2W8qXMH"></path></defs><g><g><use xlink:href="#d26LNvAtdc" opacity="1" fill="#0a9000" fill-opacity="1"></use><g><use xlink:href="#d26LNvAtdc" opacity="1" fill-opacity="0" stroke="#000000" stroke-width="1" stroke-opacity="1"></use></g></g><g><g><use xlink:href="#b2XYCEyK8r" opacity="1" fill="#ffffff" fill-opacity="1"></use><g><use xlink:href="#b2XYCEyK8r" opacity="1" fill-opacity="0" stroke="#000000" stroke-width="1" stroke-opacity="0"></use></g></g><g><use xlink:href="#chpuJGAL3" opacity="1" fill="#ffffff" fill-opacity="1"></use><g><use xlink:href="#chpuJGAL3" opacity="1" fill-opacity="0" stroke="#000000" stroke-width="1" stroke-opacity="0"></use></g></g><g><use xlink:href="#dw4mpccPW" opacity="1" fill="#ffffff" fill-opacity="1"></use><g><use xlink:href="#dw4mpccPW" opacity="1" fill-opacity="0" stroke="#000000" stroke-width="1" stroke-opacity="0"></use></g></g><g><use xlink:href="#aEu2l512l" opacity="1" fill="#ffffff" fill-opacity="1"></use><g><use xlink:href="#aEu2l512l" opacity="1" fill-opacity="0" stroke="#000000" stroke-width="1" stroke-opacity="0"></use></g></g><g><use xlink:href="#b1v2W8qXMH" opacity="1" fill="#ffffff" fill-opacity="1"></use><g><use xlink:href="#b1v2W8qXMH" opacity="1" fill-opacity="0" stroke="#000000" stroke-width="1" stroke-opacity="0"></use></g></g></g></g></svg>